# xmcd CD database file
#
# Track frame offsets:
#	150
#	24662
#	43377
#	59875
#	78862
#	91785
#	114360
#	131267
#	147615
#	164100
#	183685
#	196720
#
# Disc length: 2826 seconds
#
# Revision: 0
# Processed by: cddbd v1.4PL0 Copyright (c) Steve Scherf et al.
# Submitted via: CDex 1.40Beta9
#
DISCID=ad0b080c
DTITLE=Sonny Kenner - Never Give Up On Love
DYEAR=1996
DGENRE=Blues
TTITLE0=Never Give Up On Love
TTITLE1=Sarah
TTITLE2=Southside Rolling
TTITLE3=Firecracker
TTITLE4=Malaguena
TTITLE5=Everything Must Change
TTITLE6=Stormy Monday Blues
TTITLE7=Mary Annes's
TTITLE8=Watermelon Man
TTITLE9=Stop, Look and Listen
TTITLE10=Finising Touch
TTITLE11=Thank You
EXTD=YEAR: 1996 ID3G: 0
EXTT0=
EXTT1=
EXTT2=
EXTT3=
EXTT4=
EXTT5=
EXTT6=
EXTT7=
EXTT8=
EXTT9=
EXTT10=
EXTT11=
PLAYORDER=
